<svg xmlns="http://www.w3.org/2000/svg" width="32" height="32" viewBox="0 0 512 512" version="1.1">
	<path d="M 237.500 21.582 C 235.850 21.809, 231.125 22.477, 227 23.066 C 190.426 28.286, 150.706 45.809, 115.675 72.178 C 104.556 80.547, 77.843 107.606, 70.557 117.880 C 40.712 159.964, 25.892 206.217, 25.821 257.500 C 25.771 293.946, 34.264 327.318, 52.163 361 C 78.872 411.262, 123.989 452.236, 174.199 471.828 C 201.431 482.454, 219.489 486.047, 249.136 486.735 C 284.406 487.554, 308.250 483.437, 338.500 471.305 C 399.198 446.960, 449.107 395.926, 472.289 334.500 C 483.290 305.348, 487.889 278.287, 486.649 250 C 484.629 203.919, 471.108 162.496, 445.684 124.500 C 428.493 98.807, 406.901 77.980, 377.491 58.720 C 350.193 40.845, 320.875 29.180, 289 23.513 C 279.951 21.904, 244.742 20.584, 237.500 21.582 M 228 36.475 C 167.273 46.756, 103.763 89.315, 73.293 140.146 C 61.777 159.357, 52.849 180.742, 47.468 202 C 39.493 233.512, 39.097 272.276, 46.442 302.541 C 59.852 357.795, 93.794 405.910, 142.064 438.092 C 168.140 455.476, 203.326 468.599, 233.166 472.068 C 245.894 473.548, 277.447 472.756, 288.500 470.679 C 332.159 462.476, 372.121 441.577, 404.361 410.085 C 435.440 379.728, 455.233 345.712, 465.464 305.078 C 469.617 288.584, 471.244 274.850, 471.279 256 C 471.356 215.125, 460.642 176.790, 439.279 141.500 C 406.359 87.117, 343.436 45.403, 280.924 36.518 C 268.214 34.712, 238.558 34.687, 228 36.475 M 241 42.662 C 202.652 46.413, 165.858 61.090, 132.645 85.884 C 102.995 108.019, 83.855 130.745, 68.978 161.480 C 54.665 191.050, 49.149 214.125, 48.271 248.088 C 47.709 269.875, 48.548 280.955, 52.089 298.500 C 57.969 327.628, 73.725 360.783, 93.434 385.500 C 100.628 394.522, 116.558 410.654, 125.500 417.973 C 151.307 439.095, 183.692 454.475, 217.500 461.663 C 229.640 464.245, 232.087 464.427, 254.500 464.426 C 280.974 464.424, 286.849 463.689, 309.091 457.593 C 353.201 445.503, 396.174 415.718, 424.829 377.372 C 446.096 348.915, 459.586 313.925, 464.104 275.508 C 465.966 259.674, 464.710 230.411, 461.506 215 C 449.462 157.056, 418.720 111.750, 368.778 78.343 C 330.513 52.746, 280.549 38.794, 241 42.662 M 238.470 56.047 C 226.305 57.124, 204.735 62.423, 191.927 67.479 C 160.793 79.772, 128.150 102.795, 107.114 127.299 C 79.963 158.927, 64.486 197.838, 61.019 243.187 C 56.754 298.973, 82.620 361.928, 125.473 400.063 C 187.690 455.431, 267.485 467.305, 338.461 431.758 C 389.206 406.344, 423.509 367.718, 440.433 316.934 C 449.041 291.102, 452.866 263.730, 451.017 241.175 C 448.380 208.991, 437.438 175.407, 420.905 148.750 C 400.297 115.523, 364.083 85.809, 324.500 69.649 C 297.519 58.634, 265.830 53.623, 238.470 56.047 M 240.310 80.028 C 213.126 82.889, 184.885 93.622, 162.002 109.790 C 148.656 119.219, 127.883 140.097, 120.066 151.939 C 100.819 181.094, 92.054 211.121, 92.024 248 C 92.002 276.124, 97.266 298.464, 109.623 322.688 C 128.454 359.604, 162.183 389.424, 200.330 402.884 C 211.143 406.700, 213.256 406.762, 215.945 403.343 C 220.029 398.151, 216.565 393.849, 205.969 390.953 C 191.822 387.087, 172.996 376.663, 157.720 364.238 C 121.369 334.673, 99.862 283.187, 103.993 235.620 C 107.161 199.131, 119.854 168.377, 142.274 142.865 C 163.187 119.068, 198.341 99.213, 230 93.316 C 244.602 90.596, 270.344 90.843, 283.816 93.832 C 310.833 99.826, 332.859 110.633, 353.675 128.110 C 379.960 150.178, 397.064 179.756, 405.162 217.143 C 408.181 231.083, 408.465 262.677, 405.693 276.346 C 394.123 333.411, 353.720 377.296, 298.797 392.455 C 290.715 394.685, 287.402 400.339, 291.829 404.345 C 296.006 408.125, 307.805 404.757, 331.500 393.018 C 375.594 371.173, 406.010 331.652, 417.120 281.770 C 420.085 268.455, 420.786 240.651, 418.558 224.672 C 415.541 203.029, 407.087 178.728, 396.225 160.473 C 363.741 105.883, 301.210 73.620, 240.310 80.028 M 236.100 117.048 C 210.915 123.643, 205.508 141.778, 225.710 151.892 C 231.521 154.802, 235.524 154.656, 237.619 151.459 C 240.137 147.616, 238.204 144.422, 231.587 141.496 C 228.615 140.182, 225.879 138.613, 225.506 138.009 C 224.176 135.858, 227.974 132.153, 233.707 130.008 C 248.655 124.416, 276.126 126.374, 284.112 133.602 C 286.889 136.115, 286.451 138.589, 283 139.879 C 281.350 140.495, 278.612 141.520, 276.916 142.156 C 268.218 145.417, 273.515 155.770, 282.750 153.558 C 284.262 153.196, 287.825 151.319, 290.667 149.386 C 306.939 138.317, 298.160 121.744, 273.227 116.460 C 263.403 114.378, 245.193 114.667, 236.100 117.048 M 219 172.911 L 201.500 173.500 195.263 176.882 C 178.873 185.771, 170.125 204.231, 174.398 220.910 C 177.935 234.716, 186.429 244.762, 201.196 252.604 C 206.669 255.511, 211.481 258.913, 213.569 261.351 C 217.881 266.389, 221.067 274.712, 221.742 282.703 C 222.217 288.324, 221.928 289.619, 218.665 296.491 C 209.686 315.397, 211.785 330.863, 225.152 344.287 C 235.584 354.765, 250.230 359.011, 265.201 355.898 C 283.318 352.132, 297.342 337.272, 298.747 320.353 C 299.310 313.572, 296.810 303.506, 292.403 294.808 C 289.740 289.553, 289.450 285.695, 291.123 277.799 C 292.487 271.363, 295.322 265.458, 298.860 261.683 C 300.312 260.133, 306.147 256.096, 311.828 252.712 C 328.622 242.706, 335.887 233.548, 338.326 219.306 C 341.213 202.451, 331.153 185.129, 313.370 176.337 L 305.610 172.500 271.055 172.411 C 252.050 172.362, 228.625 172.587, 219 172.911 M 201.339 186.915 C 195.996 189.364, 189.347 196.022, 186.933 201.339 C 184.576 206.531, 184.423 215.949, 186.592 222.316 C 188.984 229.337, 195.971 236.456, 204.901 240.973 C 214.459 245.808, 220.265 250.795, 225.172 258.388 C 229.933 265.753, 234.080 278.535, 234.295 286.500 C 234.431 291.565, 233.967 293.357, 231.315 298 C 222.606 313.247, 223.631 327.013, 234.186 336.549 C 249.294 350.199, 274.165 346.373, 283.284 328.996 C 285.869 324.070, 286.130 322.722, 285.799 316 C 285.503 309.963, 284.706 306.915, 281.715 300.374 C 277.469 291.087, 276.923 284.638, 279.522 274.460 C 283.328 259.550, 291.476 249.311, 304.923 242.539 C 313.380 238.280, 320.060 232.454, 323.821 226.058 C 326.129 222.130, 326.498 220.394, 326.483 213.500 C 326.462 203.994, 324.558 199.613, 317.699 193.290 C 308.720 185.014, 312.685 185.530, 256 185.253 C 208.136 185.019, 205.283 185.106, 201.339 186.915 M 250.500 301.863 C 241.127 306.126, 241.272 318.709, 250.739 322.664 C 258.910 326.078, 269.010 320.068, 268.996 311.800 C 268.990 308.160, 265.270 303.011, 261.510 301.440 C 257.067 299.583, 255.370 299.648, 250.500 301.863" stroke="none" fill="yellow" fill-rule="evenodd"/>
</svg>